#!OML:ASF I:\Actors\actors\Patient Classification 1\Patient 1\Session 1\Subject1.ASF
:FULLY-SPECIFIED
:DEGREES
400
root 0.10956 17.4831 9.14022 9.02306 7.35389 -9.19917
lowerback 2.57407 1.37958 12.1135
upperback -8.36289 3.0082 1.89189
thorax -10.0388 0.599096 -5.03289
lowerneck -9.97165 7.65973 7.92628
upperneck 25.8704 9.81262 -1.72415
head 10.4075 5.14511 -0.732581
rclavicle -2.56059e-014 3.598e-014
rhumerus -56.0069 34.6523 -109.095
rradius 93.1917
rwrist -28.8484
rhand 25.1006 -69.7697
rfingers 7.12502
rthumb 49.2535 -268.624
lclavicle -2.56059e-014 3.598e-014
lhumerus -55.5324 -26.7533 107.093
lradius 77.313
lwrist 71.0724
lhand -25.0897 20.9726
lfingers 7.12502
lthumb 1.42493 50.9476
rfemur -3.97727 23.4765 28.5239
rtibia 1.96219
rfoot -14.5145 -30.8402
rtoes 11.6258
lfemur -1.55397 -40.2029 -4.3768
ltibia -3.94292
lfoot -9.45562 42.3562
ltoes -6.24133
401
root 0.0847875 17.4831 9.12187 9.06139 7.46479 -9.24948
lowerback 2.72895 1.2695 12.0476
upperback -8.37082 2.88504 1.94791
thorax -10.1674 0.538938 -4.92971
lowerneck -9.96019 7.67661 7.92449
upperneck 25.5649 9.78846 -1.59898
head 10.2855 5.14551 -0.697987
rclavicle 7.33018e-016 1.42131e-014
rhumerus -56.7445 34.961 -108.947
rradius 94.6275
rwrist -30.2197
rhand 22.9929 -69.5865
rfingers 7.12502
rthumb 47.3123 -267.886
lclavicle 7.33018e-016 1.42131e-014
lhumerus -55.9028 -27.7702 107.954
lradius 78.2699
lwrist 72.9563
lhand -24.7485 21.289
lfingers 7.12502
lthumb 1.75447 51.2616
rfemur -4.09223 23.5205 28.5913
rtibia 1.90652
rfoot -14.5698 -30.9578
rtoes 11.5959
lfemur -1.74649 -40.4813 -4.09994
ltibia -3.9464
lfoot -9.55599 42.5773
ltoes -5.94342
402
root 0.0619147 17.4831 9.1043 9.03587 7.70742 -9.27143
lowerback 2.87866 1.15495 11.9794
upperback -8.3349 2.74713 1.96508
thorax -10.2427 0.474836 -4.86484
lowerneck -9.96671 7.6446 8.15508
upperneck 25.2177 9.75061 -1.87075
head 10.1867 5.11653 -0.83974
rclavicle -1.82509e-014 -3.01159e-014
rhumerus -57.4465 35.1231 -108.669
rradius 96.0855
rwrist -31.0752
rhand 20.5423 -69.1317
rfingers 7.12502
rthumb 45.0399 -267.384
lclavicle -1.82509e-014 -3.01159e-014
lhumerus -56.2242 -28.7455 108.745
lradius 79.2513
lwrist 74.4662
lhand -24.2178 21.2696
lfingers 7.12502
lthumb 2.26698 51.2373
rfemur -4.12093 23.5805 28.6706
rtibia 1.87246
rfoot -14.7136 -31.1792
rtoes 11.7422
lfemur -1.96845 -40.7454 -3.86494
ltibia -3.87408
lfoot -9.42069 42.6515
ltoes -6.21328
403
root 0.0413866 17.4859 9.08483 8.92689 8.0743 -9.24387
lowerback 3.12219 1.01615 11.9133
upperback -8.27316 2.58727 1.96537
thorax -10.3479 0.398193 -4.81936
lowerneck -9.95667 7.59011 8.25805
upperneck 24.8276 9.6661 -1.99022
head 10.0509 5.07108 -0.915622
rclavicle 6.87671e-015 -1.69961e-014
rhumerus -58.1405 35.2487 -108.29
rradius 97.5116
rwrist -31.5814
rhand 19.3659 -69.1071
rfingers 7.12502
rthumb 43.9439 -266.989
lclavicle 6.87671e-015 -1.69961e-014
lhumerus -56.4826 -29.6072 109.515
lradius 80.2191
lwrist 75.3764
lhand -23.7437 21.2394
lfingers 7.12502
lthumb 2.72485 51.2017
rfemur -4.07955 23.4357 28.7184
rtibia 1.86773
rfoot -14.8677 -31.3257
rtoes 11.9181
lfemur -2.17245 -40.9907 -3.71615
ltibia -3.77365
lfoot -9.18951 42.5708
ltoes -6.52533
404
root 0.0223404 17.4862 9.06766 8.85491 8.35456 -9.27484
lowerback 3.34116 0.904835 11.9038
upperback -8.23632 2.47112 2.00581
thorax -10.4608 0.339142 -4.76412
lowerneck -10.0898 7.55528 8.16177
upperneck 24.6156 9.59657 -1.92428
head 9.98636 5.0335 -0.884942
rclavicle 1.3946e-014 -1.3418e-014
rhumerus -58.9095 35.4794 -107.934
rradius 98.8743
rwrist -32.3136
rhand 18.9111 -69.2872
rfingers 7.12502
rthumb 43.5194 -266.653
lclavicle 1.3946e-014 -1.3418e-014
lhumerus -56.6976 -30.2067 110.257
lradius 81.0852
lwrist 75.7628
lhand -23.3508 21.2106
lfingers 7.12502
lthumb 3.10431 51.1678
rfemur -4.10635 23.1718 28.82
rtibia 1.89703
rfoot -14.9135 -31.3106
rtoes 11.819
lfemur -2.34095 -40.9833 -3.49029
ltibia -3.78113
lfoot -9.01931 42.368
ltoes -6.63238
405
root 0.00709826 17.4858 9.05286 8.76638 8.65039 -9.30507
lowerback 3.57777 0.757883 11.9292
upperback -8.21724 2.31428 2.04362
thorax -10.6121 0.254596 -4.7259
lowerneck -10.2881 7.56158 7.99354
upperneck 24.5176 9.55394 -1.68276
head 9.96396 5.02073 -0.774253
rclavicle -3.96327e-015 2.03754e-014
rhumerus -59.6693 35.7605 -107.682
rradius 100.09
rwrist -33.4191
rhand 19.6603 -70.3914
rfingers 7.12502
rthumb 44.2185 -265.808
lclavicle -3.96327e-015 2.03754e-014
lhumerus -56.8748 -30.5177 110.859
lradius 81.8386
lwrist 76.1267
lhand -23.1073 21.1219
lfingers 7.12502
lthumb 3.33946 51.0755
rfemur -4.09942 22.9627 28.9218
rtibia 1.9246
rfoot -15.0134 -31.3809
rtoes 11.8408
lfemur -2.52165 -40.7937 -3.2808
ltibia -3.76426
lfoot -8.89594 41.987
ltoes -6.794
406
root -0.00336567 17.483 9.04356 8.74527 8.84097 -9.31281
lowerback 3.67361 0.673411 11.9532
upperback -8.21754 2.21612 2.02487
thorax -10.6875 0.199603 -4.75069
lowerneck -10.406 7.57407 7.92585
upperneck 24.4042 9.5004 -1.41526
head 9.9254 5.01612 -0.675534
rclavicle -8.87698e-015 -1.25234e-014
rhumerus -60.3683 35.9333 -107.536
rradius 101.159
rwrist -34.6441
rhand 22.5886 -73.3962
rfingers 7.12502
rthumb 46.9384 -263.911
lclavicle -8.87698e-015 -1.25234e-014
lhumerus -57.0498 -30.6985 111.357
lradius 82.447
lwrist 76.5645
lhand -22.9378 20.9294
lfingers 7.12502
lthumb 3.50316 50.8803
rfemur -4.17048 22.7485 28.9547
rtibia 2.00157
rfoot -15.1423 -31.2992
rtoes 12.0097
lfemur -2.62463 -41.005 -3.17928
ltibia -3.74939
lfoot -8.90238 42.0759
ltoes -6.899
407
root -0.0146701 17.4805 9.02913 8.77657 9.11029 -9.28385
lowerback 3.80548 0.592741 11.9434
upperback -8.26236 2.12752 1.97776
thorax -10.834 0.144914 -4.7895
lowerneck -10.5003 7.54936 7.94374
upperneck 24.3006 9.41022 -1.26556
head 9.89525 4.98994 -0.636534
rclavicle -8.01972e-015 1.39149e-014
rhumerus -61.0469 36.0628 -107.472
rradius 102.103
rwrist -35.6528
rhand 18.828 -72.1005
rfingers 7.12502
rthumb 43.4418 -263.812
lclavicle -8.01972e-015 1.39149e-014
lhumerus -57.2504 -30.7898 111.833
lradius 82.9142
lwrist 76.8976
lhand -22.7788 20.6973
lfingers 7.12502
lthumb 3.65671 50.6457
rfemur -4.35022 22.4519 28.9128
rtibia 2.1271
rfoot -15.2588 -31.217
rtoes 12.1091
lfemur -2.90232 -41.1429 -3.00232
ltibia -3.71674
lfoot -8.60332 42.0271
ltoes -7.52343
408
root -0.0204867 17.4846 9.01457 8.56673 9.39835 -9.22629
lowerback 4.21832 0.457934 11.981
upperback -8.23972 2.00589 1.91756
thorax -11.08 0.0656164 -4.87089
lowerneck -10.5808 7.51942 8.03331
upperneck 24.1639 9.32349 -1.21614
head 9.8602 4.96056 -0.644066
rclavicle -2.91996e-014 3.06625e-014
rhumerus -61.7387 36.3161 -107.584
rradius 102.897
rwrist -36.3925
rhand 17.188 -71.9591
rfingers 7.12502
rthumb 41.9071 -263.42
lclavicle -2.91996e-014 3.06625e-014
lhumerus -57.4259 -30.714 112.193
lradius 83.2647
lwrist 77.1387
lhand -22.5056 20.569
lfingers 7.12502
lthumb 3.9205 50.5127
rfemur -4.22468 22.1534 28.8934
rtibia 2.20289
rfoot -15.3677 -31.2257
rtoes 12.0774
lfemur -2.88117 -41.162 -3.09699
ltibia -3.6807
lfoot -8.19575 41.7669
ltoes -8.13672
409
root -0.0264908 17.4859 8.99888 8.47251 9.61461 -9.19406
lowerback 4.52796 0.339964 11.9939
upperback -8.22831 1.89083 1.87251
thorax -11.2761 -0.00494405 -4.91935
lowerneck -10.6566 7.51018 8.13154
upperneck 23.9553 9.2638 -1.17368
head 9.80085 4.94278 -0.653383
rclavicle 2.34628e-014 -3.60546e-014
rhumerus -62.4056 36.671 -107.867
rradius 103.556
rwrist -37.1092
rhand 16.7284 -72.2703
rfingers 7.12502
rthumb 41.476 -262.967
lclavicle 2.34628e-014 -3.60546e-014
lhumerus -57.4806 -30.5309 112.407
lradius 83.4276
lwrist 77.4541
lhand -22.3081 20.5341
lfingers 7.12502
lthumb 4.1113 50.4742
rfemur -4.24296 22.0149 28.8751
rtibia 2.31665
rfoot -15.4284 -31.2908
rtoes 11.9464
lfemur -3.08337 -40.7706 -3.00948
ltibia -3.58505
lfoot -7.80213 41.1982
ltoes -8.56844
410
root -0.0305513 17.4849 8.98827 8.4557 9.55802 -9.27245
lowerback 4.54422 0.29502 11.9392
upperback -8.10212 1.82085 1.93681
thorax -11.1529 -0.0190722 -4.81013
lowerneck -10.8868 7.56329 8.05207
upperneck 23.7576 9.2802 -0.996369
head 9.76138 4.95676 -0.572338
rclavicle 2.1711e-015 1.96548e-014
rhumerus -62.7966 37.2963 -108.107
rradius 104.08
rwrist -37.9331
rhand 16.4999 -72.8146
rfingers 7.12502
rthumb 41.2615 -262.353
lclavicle 2.1711e-015 1.96548e-014
lhumerus -57.2071 -30.2307 112.458
lradius 83.3635
lwrist 77.8272
lhand -22.4452 20.5248
lfingers 7.12502
lthumb 3.97883 50.4674
rfemur -4.36441 21.889 28.964
rtibia 2.46261
rfoot -15.2921 -31.1233
rtoes 11.4826
lfemur -3.15774 -40.4236 -2.85867
ltibia -3.57507
lfoot -7.58182 40.9554
ltoes -8.84641
